<!-- Generated by IcoMoon.io -->
<svg version="1.1" xmlns="http://www.w3.org/2000/svg" width="23" height="23" viewBox="0 0 768 768">
<title></title>
<g id="icomoon-ignore">
</g>
<path fill="#000" d="M557.248 210.752c-24.96-24.992-65.536-24.992-90.496 0l-82.752 82.752-82.752-82.752c-24.96-24.992-65.536-24.992-90.496 0-24.992 24.992-24.992 65.504 0 90.496l82.72 82.752-82.72 82.752c-24.992 24.992-24.992 65.504 0 90.496 12.48 12.512 28.864 18.752 45.248 18.752s32.768-6.24 45.248-18.752l82.752-82.752 82.752 82.752c12.48 12.512 28.864 18.752 45.248 18.752s32.768-6.24 45.248-18.752c24.992-24.992 24.992-65.504 0-90.496l-82.72-82.752 82.72-82.752c24.992-24.992 24.992-65.504 0-90.496z"></path>
</svg>
